<?xml version="1.0" encoding="UTF-8" standalone="no"?>
<svg
   width="135.46666mm"
   height="135.46666mm"
   viewBox="0 0 511.99998 511.99998"
   version="1.1"
   id="svg28"
   xmlns="http://www.w3.org/2000/svg"
   xmlns:svg="http://www.w3.org/2000/svg"
   xmlns:rdf="http://www.w3.org/1999/02/22-rdf-syntax-ns#"
   xmlns:cc="http://creativecommons.org/ns#"
   xmlns:dc="http://purl.org/dc/elements/1.1/">
  <defs
     id="defs22" />
  <metadata
     id="metadata25">
    <rdf:RDF>
      <cc:Work
         rdf:about="">
        <dc:format>image/svg+xml</dc:format>
        <dc:type
           rdf:resource="http://purl.org/dc/dcmitype/StillImage" />
      </cc:Work>
    </rdf:RDF>
  </metadata>
  <g
     id="layer1"
     transform="translate(19.54426,516.48123)">
    <g
       id="g868"
       transform="matrix(2.7826087,0,0,2.7826087,175.38271,482.1898)">
      <rect
         style="fill:#3d4058;fill-opacity:1;stroke:none;stroke-width:0.616517;stroke-miterlimit:4;stroke-dasharray:none;stroke-opacity:1"
         id="rect848"
         width="184"
         height="184"
         x="-70.05188"
         y="-358.8974"
         ry="23.918074" />
      <g
         id="g856"
         transform="matrix(2.3505436,0,0,2.3372218,-33.33541,354.53995)">
        <path
           d="m 2.0686364,-231.60111 v -56.39433 l -12.6804904,3.49875 v -12.24562 l 12.7631004,-3.40668 H 13.923046 v 68.54788 z"
           style="font-style:normal;font-variant:normal;font-weight:bold;font-stretch:normal;font-size:192px;line-height:1.25;font-family:'DejaVu Sans Mono';-inkscape-font-specification:'DejaVu Sans Mono Bold';fill:#f4f1de;fill-opacity:1;stroke:none;stroke-width:0.465131"
           id="path850" />
        <path
           id="path852"
           style="font-style:normal;font-variant:normal;font-weight:bold;font-stretch:normal;font-size:192px;line-height:1.25;font-family:'DejaVu Sans Mono';-inkscape-font-specification:'DejaVu Sans Mono Bold';fill:#f4f1de;fill-opacity:1;stroke:none;stroke-width:0.456381"
           d="m 35.552856,-300.21306 c -2.53335,0 -5.17684,0.25115 -7.93047,0.75344 -2.75364,0.47275 -5.54858,1.1671 -8.38482,2.08305 v 11.87776 c 2.83624,-1.18187 5.57611,-2.08304 8.2196,-2.70352 2.64349,-0.62048 5.12176,-0.93072 7.43482,-0.93072 3.029,0 5.36959,0.69435 7.02177,2.08304 1.67972,1.35915 2.51958,3.26491 2.51958,5.71728 0,2.33419 -0.83986,4.15132 -2.51958,5.45137 -1.65218,1.2705 -3.99277,1.90576 -7.02177,1.90576 h -15.67155 v 11.5232 h 15.67155 c 3.52465,0 6.25075,0.93072 8.1783,2.79217 1.92754,1.83189 2.89132,4.44677 2.89132,7.84464 0,2.77739 -0.96378,4.99339 -2.89132,6.64801 -1.92755,1.62506 -4.5435,2.4376 -7.84787,2.4376 -2.43667,0 -4.76271,-0.25889 -7.03468,-0.64449 v 11.27114 c 2.32349,0.32608 4.66321,0.542 7.03468,0.542 7.29714,0 12.85949,-1.68417 16.68704,-5.05249 3.82756,-3.36832 5.74133,-8.2583 5.74133,-14.66993 0,-4.78656 -1.15652,-8.6424 -3.46958,-11.56752 -2.31305,-2.95467 -5.67249,-4.84566 -10.07831,-5.67297 3.88263,-0.76821 6.87033,-2.39328 8.96309,-4.8752 2.09276,-2.51147 3.13914,-5.73205 3.13914,-9.66177 0,-5.34795 -1.8174,-9.54358 -5.4522,-12.58688 -3.6348,-3.04331 -8.70149,-4.56497 -15.20007,-4.56497 z" />
      </g>
    </g>
  </g>
</svg>
